<svg xmlns="http://www.w3.org/2000/svg" width="563.038" height="113.25" viewBox="0 0 563.038 113.25">
  <g id="Group_467" data-name="Group 467" transform="translate(-797.51 -342.468)">
    <path id="Path_384" data-name="Path 384" d="M41.978-107.814H63.42L103.888,0H79.728L71.121-24.915H33.371L24.764,0H1.51ZM65.232-43.488,52.1-82.144,39.109-43.488ZM120.2-107.814h22.5v88.486h51.038L191.317,0H120.2ZM254.133,2.718A56.171,56.171,0,0,1,232.54-1.208a43.9,43.9,0,0,1-16.157-11.325A50.814,50.814,0,0,1,206.19-30.351a72.84,72.84,0,0,1-3.548-23.556,72.84,72.84,0,0,1,3.548-23.556,50.194,50.194,0,0,1,10.268-17.818,44.6,44.6,0,0,1,16.232-11.325,55.75,55.75,0,0,1,21.442-3.926,56.171,56.171,0,0,1,21.593,3.926,43.217,43.217,0,0,1,16.082,11.325,50.53,50.53,0,0,1,10.042,17.818,74.3,74.3,0,0,1,3.473,23.556,75.819,75.819,0,0,1-3.4,23.556,49.627,49.627,0,0,1-9.966,17.818A43.217,43.217,0,0,1,275.877-1.208,56.6,56.6,0,0,1,254.133,2.718Zm-.151-19.328q14.194,0,21.14-9.664t6.946-27.633q0-17.818-6.946-27.558T253.982-91.2q-14.194,0-21.14,9.739T225.9-53.907q0,17.969,6.946,27.633T253.982-16.61Z" transform="translate(796 453)" fill="#fff"/>
    <path id="Path_385" data-name="Path 385" d="M10.008-25.7H15.12L24.768,0h-5.76L16.956-5.94h-9L5.9,0H.36Zm5.544,15.336L12.42-19.584l-3.1,9.216ZM28.656-25.7H33.48L44.064-8.856V-25.7h5.22V0H44.5L33.876-16.7V0h-5.22Zm26.784,0H60.8V0H55.44Zm11.52,0H73.4L79.812-6.516,86.4-25.7h6.264V0H87.732V-17.136L81.864,0H77.688l-5.9-17.1V0H66.96Zm39.24,0h5.112L120.96,0H115.2l-2.052-5.94h-9L102.1,0H96.552Zm5.544,15.336-3.132-9.216-3.1,9.216Zm13.1-15.336h5.364v21.1H142.38L141.8,0H124.848ZM2.628,16.3H7.992v21.1H20.16L19.584,42H2.628Zm21.924,0h5.364V42H24.552Zm11.52,0h9.252a17.134,17.134,0,0,1,4.7.54,7.729,7.729,0,0,1,2.934,1.476,4.9,4.9,0,0,1,1.494,2.2,8.717,8.717,0,0,1,.414,2.736,6.416,6.416,0,0,1-.648,2.844,5.285,5.285,0,0,1-2.448,2.268,9.4,9.4,0,0,1,1.89,1.278,5.386,5.386,0,0,1,1.728,2.97,7.886,7.886,0,0,1,.162,1.584,9.506,9.506,0,0,1-.486,3.06,5.888,5.888,0,0,1-1.62,2.484,8.1,8.1,0,0,1-2.97,1.656A14.5,14.5,0,0,1,45.936,42H36.072Zm9.864,10.188a4.118,4.118,0,0,0,2.916-.792,3.069,3.069,0,0,0,.792-2.268,2.477,2.477,0,0,0-1.026-2.25,6.69,6.69,0,0,0-3.474-.666H41.256v5.976Zm-.18,11.3a8.206,8.206,0,0,0,2.214-.252,3.547,3.547,0,0,0,1.422-.738,2.628,2.628,0,0,0,.756-1.134,4.659,4.659,0,0,0,.216-1.476,3.333,3.333,0,0,0-.9-2.52A4.55,4.55,0,0,0,46.3,30.8h-5.04v6.984ZM60.264,16.3H77.8v4.572H65.628v5.616H77.076v4.608H65.628v6.336H78.552L78.012,42H60.264Zm23,0h9.108a15.006,15.006,0,0,1,4.986.7,8.046,8.046,0,0,1,3.078,1.836,6.2,6.2,0,0,1,1.548,2.52,9.1,9.1,0,0,1,.432,2.718,8.809,8.809,0,0,1-.9,4.176A7.122,7.122,0,0,1,98.5,31.092L103.716,42h-5.8L93.6,32.352H88.56V42H83.268Zm9.468,11.592a6.839,6.839,0,0,0,2.088-.27,3.244,3.244,0,0,0,1.314-.756,2.536,2.536,0,0,0,.666-1.17,5.937,5.937,0,0,0,.18-1.512,4.023,4.023,0,0,0-.216-1.314,2.715,2.715,0,0,0-.738-1.116,3.55,3.55,0,0,0-1.44-.756,8.387,8.387,0,0,0-2.322-.27H88.56v7.164ZM115.776,16.3h5.112L130.536,42h-5.76l-2.052-5.94h-9L111.672,42h-5.544Zm5.544,15.336-3.132-9.216-3.1,9.216ZM136.836,20.94H129.1V16.3h20.88V20.94h-7.74V42h-5.4ZM154.224,16.3h5.364V42h-5.364Zm22.968,26.352a13.392,13.392,0,0,1-5.148-.936,10.467,10.467,0,0,1-3.852-2.7,12.115,12.115,0,0,1-2.43-4.248,17.366,17.366,0,0,1-.846-5.616,17.366,17.366,0,0,1,.846-5.616,11.967,11.967,0,0,1,2.448-4.248,10.634,10.634,0,0,1,3.87-2.7,14.526,14.526,0,0,1,10.26,0,10.3,10.3,0,0,1,3.834,2.7,12.047,12.047,0,0,1,2.394,4.248,17.713,17.713,0,0,1,.828,5.616,18.076,18.076,0,0,1-.81,5.616,11.831,11.831,0,0,1-2.376,4.248,10.3,10.3,0,0,1-3.834,2.7A13.493,13.493,0,0,1,177.192,42.648Zm-.036-4.608a5.794,5.794,0,0,0,5.04-2.3,11.176,11.176,0,0,0,1.656-6.588,11.191,11.191,0,0,0-1.656-6.57,6.631,6.631,0,0,0-10.08,0,11.191,11.191,0,0,0-1.656,6.57,11.176,11.176,0,0,0,1.656,6.588A5.794,5.794,0,0,0,177.156,38.04ZM194.724,16.3h4.824l10.584,16.848V16.3h5.22V42h-4.788l-10.62-16.7V42h-5.22ZM14.076,84.648a13.392,13.392,0,0,1-5.148-.936,10.467,10.467,0,0,1-3.852-2.7,12.115,12.115,0,0,1-2.43-4.248,19.063,19.063,0,0,1,0-11.232,11.967,11.967,0,0,1,2.448-4.248,10.634,10.634,0,0,1,3.87-2.7,13.291,13.291,0,0,1,5.112-.936,13.392,13.392,0,0,1,5.148.936,10.3,10.3,0,0,1,3.834,2.7,12.047,12.047,0,0,1,2.394,4.248,17.713,17.713,0,0,1,.828,5.616,18.076,18.076,0,0,1-.81,5.616,11.832,11.832,0,0,1-2.376,4.248,10.3,10.3,0,0,1-3.834,2.7A13.493,13.493,0,0,1,14.076,84.648ZM14.04,80.04a5.794,5.794,0,0,0,5.04-2.3,11.176,11.176,0,0,0,1.656-6.588,11.191,11.191,0,0,0-1.656-6.57,5.777,5.777,0,0,0-5.04-2.322A5.777,5.777,0,0,0,9,64.578a11.191,11.191,0,0,0-1.656,6.57A11.176,11.176,0,0,0,9,77.736,5.794,5.794,0,0,0,14.04,80.04ZM31.608,58.3h9.108A15.006,15.006,0,0,1,45.7,59a8.046,8.046,0,0,1,3.078,1.836,6.2,6.2,0,0,1,1.548,2.52,9.1,9.1,0,0,1,.432,2.718,8.809,8.809,0,0,1-.9,4.176,7.122,7.122,0,0,1-3.024,2.844L52.056,84h-5.8l-4.32-9.648H36.9V84H31.608Zm9.468,11.592a6.839,6.839,0,0,0,2.088-.27,3.244,3.244,0,0,0,1.314-.756,2.536,2.536,0,0,0,.666-1.17,5.937,5.937,0,0,0,.18-1.512,4.023,4.023,0,0,0-.216-1.314,2.715,2.715,0,0,0-.738-1.116,3.55,3.55,0,0,0-1.44-.756,8.387,8.387,0,0,0-2.322-.27H36.9v7.164Zm36.54,5.22a11.861,11.861,0,0,1-.954,3.8,9.315,9.315,0,0,1-2.124,3.024,9.513,9.513,0,0,1-3.312,2,13.191,13.191,0,0,1-4.554.72,12.661,12.661,0,0,1-5.13-.972,10.1,10.1,0,0,1-3.708-2.736,11.778,11.778,0,0,1-2.25-4.266,19.05,19.05,0,0,1-.756-5.526,17.713,17.713,0,0,1,.828-5.616,12.2,12.2,0,0,1,2.376-4.248,10.272,10.272,0,0,1,3.744-2.7,12.559,12.559,0,0,1,4.968-.936,13.393,13.393,0,0,1,4.266.612,8.342,8.342,0,0,1,3.06,1.764,8.823,8.823,0,0,1,2,2.772,14.663,14.663,0,0,1,1.116,3.636l-5.328.684a7.177,7.177,0,0,0-1.53-3.564,4.521,4.521,0,0,0-3.582-1.3,5.344,5.344,0,0,0-4.7,2.322,11.48,11.48,0,0,0-1.6,6.57,10.907,10.907,0,0,0,1.71,6.588,5.427,5.427,0,0,0,4.59,2.3A4.727,4.727,0,0,0,70.4,78.762a6.418,6.418,0,0,0,1.458-3.654ZM82.224,58.3h5.364v9.936H97.776V58.3h5.364V84H97.776V73.2H87.588V84H82.224Zm27.072,0h17.532v4.572H114.66v5.616h11.448v4.608H114.66v6.336h12.924L127.044,84H109.3Zm26.82,17.316a4.642,4.642,0,0,0,1.53,3.456,6.264,6.264,0,0,0,3.978,1.08,7.2,7.2,0,0,0,2.124-.27,4.063,4.063,0,0,0,1.4-.72,2.561,2.561,0,0,0,.774-1.062,3.7,3.7,0,0,0,.234-1.332,2.856,2.856,0,0,0-.756-1.89,4.821,4.821,0,0,0-2.772-1.278l-3.348-.612a19.8,19.8,0,0,1-3.492-.936,8.066,8.066,0,0,1-2.538-1.494,5.992,5.992,0,0,1-1.566-2.25,8.414,8.414,0,0,1-.54-3.168,6.862,6.862,0,0,1,.738-3.24,6.623,6.623,0,0,1,2.052-2.34,9.618,9.618,0,0,1,3.15-1.422,15.735,15.735,0,0,1,4.032-.486,14.474,14.474,0,0,1,4.68.648,8.5,8.5,0,0,1,3.024,1.71,6.677,6.677,0,0,1,1.71,2.466,11.562,11.562,0,0,1,.738,2.916l-5.076.648a5.008,5.008,0,0,0-1.53-3.06,5.32,5.32,0,0,0-3.438-.936,8.983,8.983,0,0,0-2.25.234,4.483,4.483,0,0,0-1.422.612,2.093,2.093,0,0,0-.756.882,2.625,2.625,0,0,0-.216,1.044,2.741,2.741,0,0,0,.81,2.16,6.026,6.026,0,0,0,2.754,1.116l3.528.684a12.216,12.216,0,0,1,6.12,2.682A7.041,7.041,0,0,1,151.74,76.8a7.6,7.6,0,0,1-.63,3.114,6.944,6.944,0,0,1-1.872,2.484,8.841,8.841,0,0,1-3.114,1.656,14.566,14.566,0,0,1-4.392.594q-5.256,0-8.046-2.25t-3.006-6.786ZM161.892,62.94h-7.74V58.3h20.88V62.94h-7.74V84h-5.4ZM179.28,58.3h9.108a15.006,15.006,0,0,1,4.986.7,8.046,8.046,0,0,1,3.078,1.836A6.2,6.2,0,0,1,198,63.354a9.1,9.1,0,0,1,.432,2.718,8.809,8.809,0,0,1-.9,4.176,7.122,7.122,0,0,1-3.024,2.844L199.728,84h-5.8l-4.32-9.648h-5.04V84H179.28Zm9.468,11.592a6.839,6.839,0,0,0,2.088-.27,3.244,3.244,0,0,0,1.314-.756,2.536,2.536,0,0,0,.666-1.17A5.937,5.937,0,0,0,193,66.18a4.023,4.023,0,0,0-.216-1.314,2.715,2.715,0,0,0-.738-1.116,3.551,3.551,0,0,0-1.44-.756,8.387,8.387,0,0,0-2.322-.27h-3.708v7.164ZM211.788,58.3H216.9L226.548,84h-5.76l-2.052-5.94h-9L207.684,84H202.14Zm5.544,15.336L214.2,64.416l-3.1,9.216Z" transform="translate(1134 371)" fill="#fff"/>
  </g>
</svg>
